<?xml version="1.0" encoding="UTF-8" standalone="no"?>
<!DOCTYPE svg PUBLIC "-//W3C//DTD SVG 1.1//EN" "http://www.w3.org/Graphics/SVG/1.1/DTD/svg11.dtd">
<svg width="800px" height="600px" version="1.1" xmlns="http://www.w3.org/2000/svg" xmlns:xlink="http://www.w3.org/1999/xlink" xml:space="preserve" xmlns:serif="http://www.serif.com/" style="fill-rule:evenodd;clip-rule:evenodd;stroke-linejoin:round;stroke-miterlimit:2;">
    <path d="M76.753,264.728L164.241,264.728L166.354,317.3L161.327,317.3C158.017,286.39 149.354,270.935 135.337,270.935C132.514,270.935 130.58,271.562 129.533,272.816C128.487,274.07 127.964,276.139 127.964,279.023L127.964,390.187C127.964,392.444 128.474,394.106 129.493,395.172C130.513,396.238 132.189,396.771 134.52,396.771L145.374,396.771L145.374,403.824L95.328,403.824L95.328,396.771L107.712,396.771C109.364,396.771 110.626,396.238 111.5,395.172C112.375,394.106 112.812,392.695 112.812,390.94L112.812,278.176C112.812,275.794 112.253,273.991 111.136,272.769C110.019,271.546 108.222,270.935 105.745,270.935C98.704,270.935 92.827,275.23 88.117,283.819C84.231,290.904 81.439,302.065 79.739,317.3L74.421,317.3L76.753,264.728Z" style="fill-rule:nonzero;"/>
    <path d="M188.499,263.129C190.685,263.129 192.603,264.195 194.254,266.326C195.905,268.458 196.731,270.966 196.731,273.85C196.731,276.672 195.93,279.117 194.327,281.186C192.724,283.255 190.806,284.289 188.572,284.289C186.338,284.289 184.408,283.239 182.781,281.139C181.154,279.038 180.34,276.578 180.34,273.756C180.34,270.935 181.166,268.458 182.817,266.326C184.468,264.195 186.362,263.129 188.499,263.129ZM169.559,315.701L196.731,314.667L196.731,390.469C196.731,392.538 197.119,394.012 197.896,394.89C199.013,396.144 200.422,396.771 202.122,396.771L209.843,396.771L209.843,403.824L171.016,403.824L171.016,396.771L178.228,396.771C180.365,396.771 181.931,396.097 182.926,394.749C183.922,393.401 184.42,391.441 184.42,388.871L184.42,333.382C184.42,329.871 183.643,327.222 182.089,325.435C180.535,323.648 178.228,322.755 175.168,322.755L169.559,322.755L169.559,315.701Z" style="fill-rule:nonzero;"/>
    <path d="M222.082,315.701L241.604,314.103C242.673,320.657 243.377,326.898 243.717,332.827C247.414,325.961 251.111,321.124 254.807,318.316C258.504,315.507 262.565,314.103 266.991,314.103C271.71,314.103 275.601,315.695 278.666,318.88C281.73,322.065 284.089,327.248 285.743,334.429C288.992,327.622 292.605,322.533 296.581,319.161C300.557,315.789 304.897,314.103 309.6,314.103C315.807,314.103 320.462,316.485 323.566,321.25C327.542,327.52 329.53,335.608 329.53,345.515L329.53,389.247C329.53,391.88 330.04,393.667 331.06,394.607C332.42,396.05 334.435,396.771 337.106,396.771L340.53,396.771L340.53,403.824L306.219,403.824L306.219,396.771L309.643,396.771C312.557,396.771 314.597,396.143 315.762,394.887C316.928,393.632 317.511,391.748 317.511,389.236L317.511,345.447C317.511,338.918 316.275,333.865 313.804,330.286C311.333,326.707 308.087,324.918 304.066,324.918C301.014,324.918 298.252,325.97 295.781,328.072C293.31,330.175 291.372,333.173 289.967,337.065C287.884,342.653 286.842,347.393 286.842,351.285L286.842,389.236C286.842,391.811 287.376,393.71 288.445,394.934C289.513,396.159 291.164,396.771 293.398,396.771L298.061,396.771L298.061,403.824L263.24,403.824L263.24,396.771L267.174,396.771C269.65,396.771 271.496,396.144 272.71,394.89C273.924,393.636 274.531,392.037 274.531,390.093L274.531,349.465C274.531,340.875 273.353,334.636 270.998,330.749C268.643,326.862 265.474,324.918 261.492,324.918C256.344,324.918 252.386,327.175 249.618,331.69C245.684,338.085 243.717,345.546 243.717,354.073L243.717,389.247C243.717,391.943 244.178,393.792 245.101,394.796C246.412,396.112 248.452,396.771 251.22,396.771L254.717,396.771L254.717,403.824L220.333,403.824L220.333,396.771L225.505,396.771C227.448,396.771 228.941,396.144 229.985,394.89C231.03,393.636 231.552,392.037 231.552,390.093L231.552,332.348C231.552,329.15 230.92,326.768 229.658,325.2C228.395,323.633 225.87,322.63 222.082,322.191L222.082,315.701Z" style="fill-rule:nonzero;"/>
    <path d="M414.542,360.374L365.662,360.374C365.905,373.792 367.848,383.259 371.49,388.777C375.666,394.984 380.984,398.087 387.443,398.087C396.962,398.087 404.611,391.096 410.39,377.115L415.125,379.748C408.035,397.554 397.788,406.457 384.384,406.457C375.254,406.457 367.568,402.194 361.328,393.667C355.087,385.14 351.967,374.23 351.967,360.938C351.967,346.643 355.039,335.091 361.182,326.282C367.326,317.473 374.889,313.068 383.874,313.068C390.479,313.068 396.185,315.263 400.993,319.651C405.801,324.04 409.419,330.342 411.847,338.555C413.547,344.323 414.445,351.596 414.542,360.374ZM365.662,353.697L395.238,353.697C396.986,353.697 398.346,352.929 399.317,351.393C400.289,349.856 400.774,347.239 400.774,343.54C400.774,336.643 399.111,330.78 395.784,325.953C392.458,321.125 388.536,318.711 384.02,318.711C378.969,318.711 374.683,321.626 371.162,327.457C367.641,333.288 365.808,342.035 365.662,353.697Z" style="fill-rule:nonzero;"/>
    <path d="M450.893,263.129L450.893,390.846C450.893,392.601 451.306,393.949 452.131,394.89C453.345,396.144 454.826,396.771 456.575,396.771L463.787,396.771L463.787,403.824L425.105,403.824L425.105,396.771L431.953,396.771C434.187,396.771 435.85,396.081 436.943,394.702C438.035,393.322 438.582,391.378 438.582,388.871L438.582,281.656C438.582,278.521 437.926,276.233 436.615,274.791C434.818,272.784 432.608,271.781 429.986,271.781L423.867,271.781L423.867,264.728L450.893,263.129Z" style="fill-rule:nonzero;"/>
    <path d="M489.72,263.129C491.905,263.129 493.824,264.195 495.475,266.326C497.126,268.458 497.952,270.966 497.952,273.85C497.952,276.672 497.15,279.117 495.548,281.186C493.945,283.255 492.027,284.289 489.793,284.289C487.559,284.289 485.628,283.239 484.002,281.139C482.375,279.038 481.561,276.578 481.561,273.756C481.561,270.935 482.387,268.458 484.038,266.326C485.689,264.195 487.583,263.129 489.72,263.129ZM470.78,315.701L497.952,314.667L497.952,390.469C497.952,392.538 498.34,394.012 499.117,394.89C500.234,396.144 501.643,396.771 503.342,396.771L511.064,396.771L511.064,403.824L472.237,403.824L472.237,396.771L479.449,396.771C481.585,396.771 483.152,396.097 484.147,394.749C485.143,393.401 485.641,391.441 485.641,388.871L485.641,333.382C485.641,329.871 484.864,327.222 483.31,325.435C481.755,323.648 479.449,322.755 476.389,322.755L470.78,322.755L470.78,315.701Z" style="fill-rule:nonzero;"/>
    <path d="M519.077,315.701L541.733,313.915C542.655,319.432 543.335,325.89 543.772,333.288C546.832,326.893 550.438,322.097 554.59,318.899C558.742,315.701 563.441,314.103 568.686,314.103C573.202,314.103 576.99,315.247 580.05,317.535C583.109,319.824 585.562,323.445 587.407,328.398C589.253,333.351 590.176,338.9 590.176,345.044L590.176,387.93C590.176,391.128 590.734,393.401 591.851,394.749C592.968,396.097 594.838,396.771 597.46,396.771L602.268,396.771L602.268,403.824L566.282,403.824L566.282,396.771L569.706,396.771C572.911,396.771 575.145,396.112 576.408,394.796C577.67,393.479 578.302,391.504 578.302,388.871L578.302,351.157C578.302,342.944 577.33,336.862 575.388,332.912C572.668,327.269 568.54,324.448 563.004,324.448C557.516,324.448 552.939,327.301 549.272,333.006C545.606,338.712 543.772,346.142 543.772,355.296L543.772,387.93C543.772,391.128 544.343,393.401 545.484,394.749C546.625,396.097 548.507,396.771 551.13,396.771L555.865,396.771L555.865,403.824L519.733,403.824L519.733,396.771L524.468,396.771C526.848,396.771 528.657,396.144 529.895,394.89C531.133,393.636 531.753,392.068 531.753,390.187L531.753,333.288C531.753,329.526 530.963,326.674 529.385,324.73C527.807,322.786 525.536,321.815 522.574,321.815L519.077,321.815L519.077,315.701Z" style="fill-rule:nonzero;"/>
    <path d="M674.241,360.374L625.36,360.374C625.603,373.792 627.546,383.259 631.188,388.777C635.365,394.984 640.683,398.087 647.142,398.087C656.66,398.087 664.309,391.096 670.088,377.115L674.823,379.748C667.733,397.554 657.486,406.457 644.082,406.457C634.952,406.457 627.267,402.194 621.026,393.667C614.786,385.14 611.665,374.23 611.665,360.938C611.665,346.643 614.737,335.091 620.88,326.282C627.024,317.473 634.588,313.068 643.572,313.068C650.177,313.068 655.883,315.263 660.691,319.651C665.499,324.04 669.117,330.342 671.545,338.555C673.245,344.323 674.143,351.596 674.241,360.374ZM625.36,353.697L654.936,353.697C656.684,353.697 658.044,352.929 659.016,351.393C659.987,349.856 660.473,347.239 660.473,343.54C660.473,336.643 658.809,330.78 655.483,325.953C652.156,321.125 648.234,318.711 643.718,318.711C638.667,318.711 634.381,321.626 630.86,327.457C627.339,333.288 625.506,342.035 625.36,353.697Z" style="fill-rule:nonzero;"/>
</svg>
