<?xml version="1.0" encoding="UTF-8" standalone="no"?>
<!DOCTYPE svg PUBLIC "-//W3C//DTD SVG 1.1//EN" "http://www.w3.org/Graphics/SVG/1.1/DTD/svg11.dtd">
<svg
        width="100%"
        height="100%"
        viewBox="0 0 800 600"
        version="1.1"
        xmlns="http://www.w3.org/2000/svg"
        xml:space="preserve"
        style="fill-rule:evenodd;clip-rule:evenodd;stroke-linejoin:round;stroke-miterlimit:2;">
    <path d="M76.753,264.728l87.488,-0l2.113,52.572l-5.027,0c-3.31,-30.91 -11.973,-46.365 -25.99,-46.365c-2.823,-0 -4.757,0.627 -5.804,1.881c-1.046,1.254 -1.569,3.323 -1.569,6.207l-0,111.164c-0,2.257 0.51,3.919 1.529,4.985c1.02,1.066 2.696,1.599 5.027,1.599l10.854,-0l0,7.053l-50.046,0l0,-7.053l12.384,-0c1.652,-0 2.914,-0.533 3.788,-1.599c0.875,-1.066 1.312,-2.477 1.312,-4.232l-0,-112.764c-0,-2.382 -0.559,-4.185 -1.676,-5.407c-1.117,-1.223 -2.914,-1.834 -5.391,-1.834c-7.041,-0 -12.918,4.295 -17.628,12.884c-3.886,7.085 -6.678,18.246 -8.378,33.481l-5.318,0l2.332,-52.572Z"
          style="fill-rule:nonzero;"/>
    <path d="M188.499,263.129c2.186,-0 4.104,1.066 5.755,3.197c1.651,2.132 2.477,4.64 2.477,7.524c-0,2.822 -0.801,5.267 -2.404,7.336c-1.603,2.069 -3.521,3.103 -5.755,3.103c-2.234,0 -4.164,-1.05 -5.791,-3.15c-1.627,-2.101 -2.441,-4.561 -2.441,-7.383c0,-2.821 0.826,-5.298 2.477,-7.43c1.651,-2.131 3.545,-3.197 5.682,-3.197Zm-18.94,52.572l27.172,-1.034l-0,75.802c-0,2.069 0.388,3.543 1.165,4.421c1.117,1.254 2.526,1.881 4.226,1.881l7.721,-0l0,7.053l-38.827,0l0,-7.053l7.212,-0c2.137,-0 3.703,-0.674 4.698,-2.022c0.996,-1.348 1.494,-3.308 1.494,-5.878l-0,-55.489c-0,-3.511 -0.777,-6.16 -2.331,-7.947c-1.554,-1.787 -3.861,-2.68 -6.921,-2.68l-5.609,0l0,-7.054Z"
          style="fill-rule:nonzero;"/>
    <path d="M222.082,315.701l19.522,-1.598c1.069,6.554 1.773,12.795 2.113,18.724c3.697,-6.866 7.394,-11.703 11.09,-14.511c3.697,-2.809 7.758,-4.213 12.184,-4.213c4.719,-0 8.61,1.592 11.675,4.777c3.064,3.185 5.423,8.368 7.077,15.549c3.249,-6.807 6.862,-11.896 10.838,-15.268c3.976,-3.372 8.316,-5.058 13.019,-5.058c6.207,-0 10.862,2.382 13.966,7.147c3.976,6.27 5.964,14.358 5.964,24.265l0,43.732c0,2.633 0.51,4.42 1.53,5.36c1.36,1.443 3.375,2.164 6.046,2.164l3.424,-0l0,7.053l-34.311,0l0,-7.053l3.424,-0c2.914,-0 4.954,-0.628 6.119,-1.884c1.166,-1.255 1.749,-3.139 1.749,-5.651l-0,-43.789c-0,-6.529 -1.236,-11.582 -3.707,-15.161c-2.471,-3.579 -5.717,-5.368 -9.738,-5.368c-3.052,0 -5.814,1.052 -8.285,3.154c-2.471,2.103 -4.409,5.101 -5.814,8.993c-2.083,5.588 -3.125,10.328 -3.125,14.22l0,37.951c0,2.575 0.534,4.474 1.603,5.698c1.068,1.225 2.719,1.837 4.953,1.837l4.663,-0l-0,7.053l-34.821,0l-0,-7.053l3.934,-0c2.476,-0 4.322,-0.627 5.536,-1.881c1.214,-1.254 1.821,-2.853 1.821,-4.797l0,-40.628c0,-8.59 -1.178,-14.829 -3.533,-18.716c-2.355,-3.887 -5.524,-5.831 -9.506,-5.831c-5.148,0 -9.106,2.257 -11.874,6.772c-3.934,6.395 -5.901,13.856 -5.901,22.383l-0,35.174c-0,2.696 0.461,4.545 1.384,5.549c1.311,1.316 3.351,1.975 6.119,1.975l3.497,-0l-0,7.053l-34.384,0l0,-7.053l5.172,-0c1.943,-0 3.436,-0.627 4.48,-1.881c1.045,-1.254 1.567,-2.853 1.567,-4.797l-0,-57.745c-0,-3.198 -0.632,-5.58 -1.894,-7.148c-1.263,-1.567 -3.788,-2.57 -7.576,-3.009l-0,-6.49Z"
          style="fill-rule:nonzero;"/>
    <path d="M414.542,360.374l-48.88,0c0.243,13.418 2.186,22.885 5.828,28.403c4.176,6.207 9.494,9.31 15.953,9.31c9.519,0 17.168,-6.991 22.947,-20.972l4.735,2.633c-7.09,17.806 -17.337,26.709 -30.741,26.709c-9.13,0 -16.816,-4.263 -23.056,-12.79c-6.241,-8.527 -9.361,-19.437 -9.361,-32.729c0,-14.295 3.072,-25.847 9.215,-34.656c6.144,-8.809 13.707,-13.214 22.692,-13.214c6.605,0 12.311,2.195 17.119,6.583c4.808,4.389 8.426,10.691 10.854,18.904c1.7,5.768 2.598,13.041 2.695,21.819Zm-48.88,-6.677l29.576,-0c1.748,-0 3.108,-0.768 4.079,-2.304c0.972,-1.537 1.457,-4.154 1.457,-7.853c0,-6.897 -1.663,-12.76 -4.99,-17.587c-3.326,-4.828 -7.248,-7.242 -11.764,-7.242c-5.051,-0 -9.337,2.915 -12.858,8.746c-3.521,5.831 -5.354,14.578 -5.5,26.24Z"
          style="fill-rule:nonzero;"/>
    <path d="M450.893,263.129l-0,127.717c-0,1.755 0.413,3.103 1.238,4.044c1.214,1.254 2.695,1.881 4.444,1.881l7.212,-0l-0,7.053l-38.682,0l0,-7.053l6.848,-0c2.234,-0 3.897,-0.69 4.99,-2.069c1.092,-1.38 1.639,-3.324 1.639,-5.831l-0,-107.215c-0,-3.135 -0.656,-5.423 -1.967,-6.865c-1.797,-2.007 -4.007,-3.01 -6.629,-3.01l-6.119,0l-0,-7.053l27.026,-1.599Z"
          style="fill-rule:nonzero;"/>
    <path d="M489.72,263.129c2.185,-0 4.104,1.066 5.755,3.197c1.651,2.132 2.477,4.64 2.477,7.524c-0,2.822 -0.802,5.267 -2.404,7.336c-1.603,2.069 -3.521,3.103 -5.755,3.103c-2.234,0 -4.165,-1.05 -5.791,-3.15c-1.627,-2.101 -2.441,-4.561 -2.441,-7.383c0,-2.821 0.826,-5.298 2.477,-7.43c1.651,-2.131 3.545,-3.197 5.682,-3.197Zm-18.94,52.572l27.172,-1.034l-0,75.802c-0,2.069 0.388,3.543 1.165,4.421c1.117,1.254 2.526,1.881 4.225,1.881l7.722,-0l0,7.053l-38.827,0l-0,-7.053l7.212,-0c2.136,-0 3.703,-0.674 4.698,-2.022c0.996,-1.348 1.494,-3.308 1.494,-5.878l-0,-55.489c-0,-3.511 -0.777,-6.16 -2.331,-7.947c-1.555,-1.787 -3.861,-2.68 -6.921,-2.68l-5.609,0l-0,-7.054Z"
          style="fill-rule:nonzero;"/>
    <path d="M519.077,315.701l22.656,-1.786c0.922,5.517 1.602,11.975 2.039,19.373c3.06,-6.395 6.666,-11.191 10.818,-14.389c4.152,-3.198 8.851,-4.796 14.096,-4.796c4.516,-0 8.304,1.144 11.364,3.432c3.059,2.289 5.512,5.91 7.357,10.863c1.846,4.953 2.769,10.502 2.769,16.646l-0,42.886c-0,3.198 0.558,5.471 1.675,6.819c1.117,1.348 2.987,2.022 5.609,2.022l4.808,-0l0,7.053l-35.986,0l-0,-7.053l3.424,-0c3.205,-0 5.439,-0.659 6.702,-1.975c1.262,-1.317 1.894,-3.292 1.894,-5.925l-0,-37.714c-0,-8.213 -0.972,-14.295 -2.914,-18.245c-2.72,-5.643 -6.848,-8.464 -12.384,-8.464c-5.488,-0 -10.065,2.853 -13.732,8.558c-3.666,5.706 -5.5,13.136 -5.5,22.29l0,32.634c0,3.198 0.571,5.471 1.712,6.819c1.141,1.348 3.023,2.022 5.646,2.022l4.735,-0l-0,7.053l-36.132,0l-0,-7.053l4.735,-0c2.38,-0 4.189,-0.627 5.427,-1.881c1.238,-1.254 1.858,-2.822 1.858,-4.703l-0,-56.899c-0,-3.762 -0.79,-6.614 -2.368,-8.558c-1.578,-1.944 -3.849,-2.915 -6.811,-2.915l-3.497,-0l0,-6.114Z"
          style="fill-rule:nonzero;"/>
    <path d="M674.241,360.374l-48.881,0c0.243,13.418 2.186,22.885 5.828,28.403c4.177,6.207 9.495,9.31 15.954,9.31c9.518,0 17.167,-6.991 22.946,-20.972l4.735,2.633c-7.09,17.806 -17.337,26.709 -30.741,26.709c-9.13,0 -16.815,-4.263 -23.056,-12.79c-6.24,-8.527 -9.361,-19.437 -9.361,-32.729c0,-14.295 3.072,-25.847 9.215,-34.656c6.144,-8.809 13.708,-13.214 22.692,-13.214c6.605,0 12.311,2.195 17.119,6.583c4.808,4.389 8.426,10.691 10.854,18.904c1.7,5.768 2.598,13.041 2.696,21.819Zm-48.881,-6.677l29.576,-0c1.748,-0 3.108,-0.768 4.08,-2.304c0.971,-1.537 1.457,-4.154 1.457,-7.853c-0,-6.897 -1.664,-12.76 -4.99,-17.587c-3.327,-4.828 -7.249,-7.242 -11.765,-7.242c-5.051,-0 -9.337,2.915 -12.858,8.746c-3.521,5.831 -5.354,14.578 -5.5,26.24Z"
          style="fill-rule:nonzero;"/>
</svg>
