<?xml version="1.0" encoding="UTF-8" standalone="no"?>
<!DOCTYPE svg PUBLIC "-//W3C//DTD SVG 1.1//EN" "http://www.w3.org/Graphics/SVG/1.1/DTD/svg11.dtd">
<svg width="100%" height="100%" viewBox="0 0 3334 2500" version="1.1" xmlns="http://www.w3.org/2000/svg" xmlns:xlink="http://www.w3.org/1999/xlink" xml:space="preserve" xmlns:serif="http://www.serif.com/" style="fill-rule:evenodd;clip-rule:evenodd;stroke-linejoin:round;stroke-miterlimit:2;">
    <g transform="matrix(4.16667,0,0,4.16667,0,0)">
        <g transform="matrix(1.18775,0,0,1.53342,-5.70752,90.9897)">
            <g id="Layer1">
                <g>
                    <path d="M69.426,113.301l73.659,-0l1.779,34.284l-4.232,0c-2.787,-20.158 -10.081,-30.236 -21.882,-30.236c-2.377,-0 -4.005,0.408 -4.886,1.226c-0.881,0.818 -1.322,2.167 -1.322,4.048l0,72.494c0,1.472 0.429,2.556 1.288,3.251c0.859,0.695 2.269,1.043 4.232,1.043l9.138,-0l0,4.599l-42.135,0l0,-4.599l10.427,-0c1.39,-0 2.453,-0.348 3.189,-1.043c0.736,-0.695 1.104,-1.615 1.104,-2.76l-0,-73.537c-0,-1.554 -0.47,-2.729 -1.411,-3.526c-0.94,-0.798 -2.453,-1.196 -4.538,-1.196c-5.929,-0 -10.876,2.8 -14.843,8.402c-3.271,4.62 -5.622,11.898 -7.053,21.834l-4.477,0l1.963,-34.284Z" style="fill-rule:nonzero;"/>
                    <path d="M163.509,112.258c1.84,-0 3.455,0.695 4.845,2.085c1.39,1.39 2.085,3.026 2.085,4.907c0,1.84 -0.674,3.434 -2.024,4.784c-1.349,1.349 -2.964,2.024 -4.845,2.024c-1.881,-0 -3.506,-0.685 -4.876,-2.055c-1.37,-1.37 -2.054,-2.975 -2.054,-4.815c-0,-1.839 0.695,-3.455 2.085,-4.845c1.39,-1.39 2.985,-2.085 4.784,-2.085Zm-15.946,34.285l22.876,-0.675l0,49.433c0,1.35 0.327,2.311 0.982,2.883c0.94,0.818 2.126,1.227 3.557,1.227l6.501,-0l0,4.599l-32.69,0l0,-4.599l6.072,-0c1.799,-0 3.118,-0.44 3.956,-1.319c0.838,-0.879 1.257,-2.157 1.257,-3.833l0,-36.186c0,-2.29 -0.654,-4.017 -1.962,-5.183c-1.309,-1.165 -3.251,-1.748 -5.827,-1.748l-4.722,0l-0,-4.599Z" style="fill-rule:nonzero;"/>
                    <path d="M191.783,146.543l16.437,-1.043c0.899,4.274 1.492,8.344 1.778,12.211c3.113,-4.478 6.225,-7.632 9.338,-9.464c3.112,-1.831 6.531,-2.747 10.258,-2.747c3.972,-0 7.249,1.038 9.829,3.115c2.58,2.077 4.566,5.457 5.958,10.14c2.736,-4.439 5.777,-7.758 9.125,-9.957c3.348,-2.199 7.002,-3.298 10.961,-3.298c5.226,-0 9.146,1.554 11.759,4.661c3.347,4.089 5.021,9.363 5.021,15.824l0,28.519c0,1.717 0.43,2.883 1.288,3.496c1.145,0.94 2.842,1.411 5.091,1.411l2.882,-0l0,4.599l-28.887,0l0,-4.599l2.883,-0c2.453,-0 4.17,-0.41 5.152,-1.229c0.981,-0.818 1.472,-2.047 1.472,-3.685l-0,-28.556c-0,-4.258 -1.041,-7.553 -3.121,-9.887c-2.081,-2.334 -4.814,-3.501 -8.199,-3.501c-2.57,0 -4.895,0.686 -6.975,2.057c-2.081,1.371 -3.712,3.326 -4.896,5.864c-1.753,3.645 -2.63,6.736 -2.63,9.274l-0,24.749c-0,1.679 0.45,2.918 1.349,3.716c0.9,0.798 2.29,1.198 4.171,1.198l3.925,-0l-0,4.599l-29.317,0l0,-4.599l3.312,-0c2.085,-0 3.639,-0.409 4.661,-1.227c1.023,-0.818 1.534,-1.86 1.534,-3.128l-0,-26.495c-0,-5.602 -0.992,-9.67 -2.975,-12.205c-1.983,-2.535 -4.651,-3.803 -8.004,-3.803c-4.334,0 -7.666,1.472 -9.997,4.416c-3.312,4.17 -4.968,9.036 -4.968,14.597l0,22.938c0,1.758 0.389,2.964 1.166,3.619c1.104,0.858 2.821,1.288 5.152,1.288l2.943,-0l0,4.599l-28.948,0l-0,-4.599l4.354,-0c1.636,-0 2.893,-0.409 3.772,-1.227c0.879,-0.818 1.319,-1.86 1.319,-3.128l-0,-37.658c-0,-2.085 -0.532,-3.639 -1.595,-4.661c-1.063,-1.022 -3.189,-1.676 -6.378,-1.963l-0,-4.231Z" style="fill-rule:nonzero;"/>
                    <path d="M353.822,175.675l-41.154,0c0.204,8.75 1.84,14.924 4.906,18.522c3.517,4.048 7.994,6.072 13.432,6.072c8.014,0 14.454,-4.559 19.32,-13.677l3.986,1.718c-5.969,11.612 -14.597,17.418 -25.882,17.418c-7.687,-0 -14.157,-2.781 -19.411,-8.341c-5.254,-5.561 -7.882,-12.676 -7.882,-21.344c0,-9.322 2.587,-16.856 7.759,-22.601c5.172,-5.744 11.541,-8.617 19.105,-8.617c5.561,0 10.365,1.431 14.413,4.293c4.048,2.863 7.094,6.972 9.138,12.328c1.431,3.762 2.188,8.505 2.27,14.229Zm-41.154,-4.354l24.901,-0c1.472,-0 2.616,-0.501 3.434,-1.503c0.818,-1.002 1.227,-2.709 1.227,-5.121c-0,-4.498 -1.401,-8.321 -4.201,-11.469c-2.801,-3.149 -6.103,-4.723 -9.905,-4.723c-4.253,0 -7.861,1.901 -10.826,5.704c-2.964,3.803 -4.507,9.506 -4.63,17.112Z" style="fill-rule:nonzero;"/>
                    <path d="M384.426,112.258l0,83.289c0,1.145 0.348,2.024 1.043,2.637c1.022,0.818 2.269,1.227 3.741,1.227l6.072,-0l-0,4.599l-32.567,0l-0,-4.599l5.765,-0c1.881,-0 3.281,-0.45 4.201,-1.35c0.92,-0.899 1.38,-2.167 1.38,-3.802l0,-69.919c0,-2.044 -0.552,-3.536 -1.656,-4.477c-1.513,-1.308 -3.373,-1.962 -5.581,-1.962l-5.152,-0l0,-4.6l22.754,-1.043Z" style="fill-rule:nonzero;"/>
                    <path d="M417.116,112.258c1.84,-0 3.455,0.695 4.845,2.085c1.39,1.39 2.086,3.026 2.086,4.907c-0,1.84 -0.675,3.434 -2.024,4.784c-1.35,1.349 -2.965,2.024 -4.846,2.024c-1.88,-0 -3.506,-0.685 -4.876,-2.055c-1.369,-1.37 -2.054,-2.975 -2.054,-4.815c-0,-1.839 0.695,-3.455 2.085,-4.845c1.39,-1.39 2.985,-2.085 4.784,-2.085Zm-15.946,34.285l22.877,-0.675l-0,49.433c-0,1.35 0.327,2.311 0.981,2.883c0.94,0.818 2.126,1.227 3.557,1.227l6.501,-0l0,4.599l-32.69,0l0,-4.599l6.072,-0c1.799,-0 3.118,-0.44 3.956,-1.319c0.838,-0.879 1.257,-2.157 1.257,-3.833l0,-36.186c0,-2.29 -0.654,-4.017 -1.962,-5.183c-1.309,-1.165 -3.251,-1.748 -5.827,-1.748l-4.722,0l-0,-4.599Z" style="fill-rule:nonzero;"/>
                    <path d="M441.833,146.543l19.074,-1.166c0.777,3.598 1.349,7.81 1.717,12.635c2.576,-4.171 5.612,-7.299 9.108,-9.384c3.496,-2.085 7.452,-3.128 11.868,-3.128c3.802,-0 6.992,0.746 9.568,2.238c2.575,1.493 4.64,3.854 6.194,7.084c1.554,3.23 2.331,6.849 2.331,10.856l-0,27.967c-0,2.086 0.47,3.568 1.41,4.447c0.941,0.879 2.515,1.319 4.723,1.319l4.048,-0l-0,4.599l-30.298,0l-0,-4.599l2.882,-0c2.699,-0 4.58,-0.43 5.643,-1.288c1.063,-0.859 1.595,-2.147 1.595,-3.864l-0,-24.594c-0,-5.357 -0.818,-9.323 -2.454,-11.899c-2.289,-3.68 -5.765,-5.52 -10.426,-5.52c-4.62,0 -8.474,1.861 -11.561,5.582c-3.087,3.72 -4.631,8.566 -4.631,14.535l0,21.282c0,2.086 0.481,3.568 1.442,4.447c0.96,0.879 2.545,1.319 4.753,1.319l3.986,-0l0,4.599l-30.42,0l-0,-4.599l3.986,-0c2.004,-0 3.527,-0.409 4.57,-1.227c1.042,-0.818 1.564,-1.84 1.564,-3.067l-0,-37.105c-0,-2.454 -0.665,-4.314 -1.994,-5.582c-1.329,-1.267 -3.24,-1.901 -5.734,-1.901l-2.944,0l-0,-3.986Z" style="fill-rule:nonzero;"/>
                    <path d="M572.47,175.675l-41.154,0c0.204,8.75 1.84,14.924 4.907,18.522c3.516,4.048 7.993,6.072 13.431,6.072c8.014,0 14.454,-4.559 19.32,-13.677l3.986,1.718c-5.969,11.612 -14.597,17.418 -25.882,17.418c-7.687,-0 -14.157,-2.781 -19.411,-8.341c-5.254,-5.561 -7.881,-12.676 -7.881,-21.344c-0,-9.322 2.586,-16.856 7.758,-22.601c5.172,-5.744 11.541,-8.617 19.105,-8.617c5.561,0 10.365,1.431 14.413,4.293c4.048,2.863 7.094,6.972 9.138,12.328c1.431,3.762 2.188,8.505 2.27,14.229Zm-41.154,-4.354l24.901,-0c1.472,-0 2.617,-0.501 3.434,-1.503c0.818,-1.002 1.227,-2.709 1.227,-5.121c-0,-4.498 -1.4,-8.321 -4.201,-11.469c-2.801,-3.149 -6.103,-4.723 -9.905,-4.723c-4.253,0 -7.861,1.901 -10.825,5.704c-2.965,3.803 -4.508,9.506 -4.631,17.112Z" style="fill-rule:nonzero;"/>
                </g>
            </g>
        </g>
    </g>
</svg>
