<svg xmlns="http://www.w3.org/2000/svg"
     xml:space="preserve"
     style="fill-rule:evenodd;clip-rule:evenodd;stroke-linejoin:round;stroke-miterlimit:2"
     viewBox="0 0 800 600">
    <path d="M.044-.722H.63l.015.273H.611C.589-.61.531-.69.437-.69c-.019 0-.032.003-.039.01-.007.006-.011.017-.011.032v.577c0 .012.004.021.01.026.007.006.019.008.034.008h.073V0H.168v-.037h.083c.012 0 .02-.002.026-.008a.028.028 0 0 0 .009-.022v-.585c0-.013-.004-.022-.012-.028C.267-.687.255-.69.238-.69c-.047 0-.086.022-.118.067a.407.407 0 0 0-.056.174H.028l.016-.273Z" style="fill-rule:nonzero" transform="matrix(149.1909 0 0 192.60982 70.197 403.823)"/>
    <path d="M.151-.73a.05.05 0 0 1 .038.016.05.05 0 0 1 .017.039.05.05 0 0 1-.016.038.053.053 0 0 1-.039.016.05.05 0 0 1-.038-.016.053.053 0 0 1-.017-.038c0-.015.006-.028.017-.039A.052.052 0 0 1 .151-.73Zm-.127.272.182-.005v.394c0 .01.003.018.008.023a.043.043 0 0 0 .028.009h.052V0h-.26v-.037h.048c.014 0 .025-.003.032-.01a.046.046 0 0 0 .01-.031v-.288a.053.053 0 0 0-.016-.041.07.07 0 0 0-.046-.014H.024v-.037Z" style="fill-rule:nonzero" transform="matrix(149.1909 0 0 192.60982 165.99 403.823)"/>
    <path d="m.061-.458.131-.008a.731.731 0 0 1 .014.097.277.277 0 0 1 .074-.075.155.155 0 0 1 .082-.022c.032 0 .058.008.078.025a.155.155 0 0 1 .048.081.259.259 0 0 1 .072-.08.162.162 0 0 1 .088-.026c.041 0 .072.013.093.037.027.033.04.075.04.126v.227c0 .014.004.023.011.028.009.008.022.011.04.011h.023V0h-.23v-.037h.023c.019 0 .033-.003.041-.009.008-.007.012-.017.012-.03v-.227a.119.119 0 0 0-.025-.079.085.085 0 0 0-.065-.028.104.104 0 0 0-.095.063.179.179 0 0 0-.021.074v.197c0 .014.004.023.011.03.007.006.018.009.033.009H.57V0H.337v-.037h.026C.38-.037.392-.04.4-.046a.03.03 0 0 0 .013-.025v-.211c0-.045-.008-.077-.024-.097A.076.076 0 0 0 .325-.41a.095.095 0 0 0-.079.035.18.18 0 0 0-.04.117v.182c0 .014.003.024.009.029.009.007.023.01.041.01H.28V0H.049v-.037h.035a.045.045 0 0 0 .03-.009.034.034 0 0 0 .011-.025v-.3C.125-.388.12-.4.112-.408.103-.416.086-.422.061-.424v-.034Z" style="fill-rule:nonzero" transform="matrix(149.1909 0 0 192.60982 212.976 403.823)"/>
    <path d="M.462-.226H.134c.002.07.015.119.039.148A.136.136 0 0 0 .28-.03c.064 0 .115-.036.154-.109l.032.014C.418-.033.35.014.26.014a.204.204 0 0 1-.155-.067.237.237 0 0 1-.063-.17.26.26 0 0 1 .062-.18.198.198 0 0 1 .152-.068.19.19 0 0 1 .188.132c.011.03.017.068.018.113ZM.134-.26h.199c.011 0 .02-.004.027-.012a.07.07 0 0 0 .01-.041.133.133 0 0 0-.034-.091.102.102 0 0 0-.079-.038c-.034 0-.062.015-.086.046a.227.227 0 0 0-.037.136Z" style="fill-rule:nonzero" transform="matrix(149.1909 0 0 192.60982 345.631 403.823)"/>
    <path d="M.206-.73v.663c0 .009.002.016.008.021a.049.049 0 0 0 .03.009h.048V0H.033v-.037h.046c.015 0 .026-.003.033-.01a.045.045 0 0 0 .011-.031v-.556C.123-.651.119-.662.11-.67a.069.069 0 0 0-.045-.016H.024v-.036L.206-.73Z" style="fill-rule:nonzero" transform="matrix(149.1909 0 0 192.60982 420.226 403.823)"/>
    <path d="M.151-.73a.05.05 0 0 1 .038.016.05.05 0 0 1 .017.039.05.05 0 0 1-.016.038.053.053 0 0 1-.039.016.05.05 0 0 1-.038-.016.053.053 0 0 1-.017-.038c0-.015.006-.028.017-.039A.052.052 0 0 1 .151-.73Zm-.127.272.182-.005v.394c0 .01.003.018.008.023a.043.043 0 0 0 .028.009h.052V0h-.26v-.037h.048c.014 0 .025-.003.032-.01a.046.046 0 0 0 .01-.031v-.288a.053.053 0 0 0-.016-.041.07.07 0 0 0-.046-.014H.024v-.037Z" style="fill-rule:nonzero" transform="matrix(149.1909 0 0 192.60982 467.213 403.823)"/>
    <path d="m.033-.458.152-.009a.81.81 0 0 1 .013.101.228.228 0 0 1 .073-.075.176.176 0 0 1 .094-.025c.031 0 .056.006.076.018a.131.131 0 0 1 .05.056.205.205 0 0 1 .018.087v.222c0 .017.004.029.012.036.007.007.02.01.037.01H.59V0H.349v-.037h.023c.022 0 .037-.003.045-.01A.04.04 0 0 0 .43-.078v-.195a.18.18 0 0 0-.02-.095.092.092 0 0 0-.083-.044.116.116 0 0 0-.092.044.181.181 0 0 0-.037.116v.169c0 .017.004.029.012.036.007.007.02.01.038.01h.031V0H.037v-.037h.032c.016 0 .028-.003.036-.009a.03.03 0 0 0 .013-.025v-.295a.061.061 0 0 0-.016-.045.065.065 0 0 0-.046-.015H.033v-.032Z" style="fill-rule:nonzero" transform="matrix(149.1909 0 0 192.60982 514.2 403.823)"/>
    <path d="M.462-.226H.134c.002.07.015.119.039.148A.136.136 0 0 0 .28-.03c.064 0 .115-.036.154-.109l.032.014C.418-.033.35.014.26.014a.204.204 0 0 1-.155-.067.237.237 0 0 1-.063-.17.26.26 0 0 1 .062-.18.198.198 0 0 1 .152-.068.19.19 0 0 1 .188.132c.011.03.017.068.018.113ZM.134-.26h.199c.011 0 .02-.004.027-.012a.07.07 0 0 0 .01-.041.133.133 0 0 0-.034-.091.102.102 0 0 0-.079-.038c-.034 0-.062.015-.086.046a.227.227 0 0 0-.037.136Z" style="fill-rule:nonzero" transform="matrix(149.1909 0 0 192.60982 605.33 403.823)"/>
</svg>